<?xml version="1.0" encoding="iso-8859-1"?>
<!-- Generator: Adobe Illustrator 19.0.0, SVG Export Plug-In . SVG Version: 6.00 Build 0)  -->
<svg xmlns="http://www.w3.org/2000/svg" xmlns:xlink="http://www.w3.org/1999/xlink" version="1.1" id="Capa_1" x="0px" y="0px" viewBox="0 0 512 512" style="enable-background:new 0 0 512 512;" xml:space="preserve" width="512px" height="512px">
<g>
	<g>
		<path d="M383.082,90.24c-0.044-0.003-0.087-0.007-0.131-0.01C364.117,36.545,313.503,0,256,0S147.883,36.545,129.049,90.23    c-0.044,0.003-0.087,0.007-0.131,0.01C72.952,93.943,31,140.513,31,196c0,57.897,47.103,105,105,105h45v196    c0,8.284,6.716,15,15,15s15-6.716,15-15v-15h90v15c0,8.284,6.716,15,15,15s15-6.716,15-15V301h45c58.608,0,105-47.594,105-105    C481,137.732,436.542,93.777,383.082,90.24z M301,452h-90v-31h90V452z M301,391h-90v-30h90V391z M301,331h-90v-30h90V331z     M301,271h-90v-30h90V271z M376,271h-45v-75c0-8.284-6.716-15-15-15s-15,6.716-15,15v15h-90v-15c0-8.284-6.716-15-15-15    s-15,6.716-15,15v75h-45c-41.355,0-75-33.645-75-75c0-67.365,80.794-101.273,128.033-54.033c5.857,5.858,15.354,5.858,21.213,0    c5.858-5.858,5.858-15.355,0-21.213c-13.98-13.98-31.209-23.525-49.983-27.945C176.755,55.118,214.014,30,256,30    c41.986,0,79.245,25.118,95.737,62.809c-18.774,4.42-36.004,13.965-49.983,27.945c-5.858,5.858-5.858,15.355,0,21.213    c5.857,5.858,15.355,5.858,21.213,0c46.735-46.735,127.889-14,128.029,53.872C450.82,237.844,417.288,271,376,271z" fill="#FFFFFF"/>
	</g>
</g>
<g>
</g>
<g>
</g>
<g>
</g>
<g>
</g>
<g>
</g>
<g>
</g>
<g>
</g>
<g>
</g>
<g>
</g>
<g>
</g>
<g>
</g>
<g>
</g>
<g>
</g>
<g>
</g>
<g>
</g>
</svg>
