<?xml version="1.0" encoding="iso-8859-1"?>
<!-- Generator: Adobe Illustrator 19.0.0, SVG Export Plug-In . SVG Version: 6.00 Build 0)  -->
<svg xmlns="http://www.w3.org/2000/svg" xmlns:xlink="http://www.w3.org/1999/xlink" version="1.1" id="Capa_1" x="0px" y="0px" viewBox="0 0 512 512" style="enable-background:new 0 0 512 512;" xml:space="preserve" width="512px" height="512px">
<g>
	<g>
		<path d="M510.178,489.834C506.418,482.92,332.034,162.247,332,162.185V120h105c6.067,0,11.537-3.655,13.858-9.26    c2.321-5.605,1.038-12.057-3.252-16.347L413.213,60l34.393-34.394c4.29-4.29,5.573-10.742,3.252-16.347    C448.537,3.655,443.067,0,437,0H317c-8.284,0-15,6.716-15,15v147.167L195.049,357.751l-46.08-79.288    C146.283,273.842,141.343,271,136,271c-0.014,0-0.029,0-0.043,0c-5.359,0.016-10.303,2.889-12.969,7.538l-121,211    c-2.662,4.642-2.649,10.351,0.033,14.981S9.649,512,15,512c6.444,0,476.891,0,482,0c5.291,0,10.19-2.787,12.894-7.335    C512.598,500.117,512.706,494.482,510.178,489.834z M332,30h68.787l-19.393,19.394c-5.858,5.857-5.858,15.355,0,21.212L400.787,90    H332V30z M316.963,197.331l65.923,121.224l-21.49,31.639L329,307c-2.833-3.777-7.279-6-12-6s-9.167,2.223-12,6l-32.396,43.194    l-21.734-31.997L316.963,197.331z M40.893,482l95.194-165.999l42.141,72.51L127.106,482H40.893z M161.299,482    c8.498-15.54,64.926-118.733,73.397-134.224l24.896,36.652c2.722,4.008,7.213,6.454,12.057,6.568    c4.834,0.109,9.444-2.12,12.351-5.996l33-44l33,44c2.837,3.782,7.285,6,11.999,6c0.117,0,0.235-0.001,0.352-0.004    c4.844-0.114,9.335-2.56,12.057-6.568l24.603-36.221L471.769,482H161.299z" fill="#FFFFFF"/>
	</g>
</g>
<g>
</g>
<g>
</g>
<g>
</g>
<g>
</g>
<g>
</g>
<g>
</g>
<g>
</g>
<g>
</g>
<g>
</g>
<g>
</g>
<g>
</g>
<g>
</g>
<g>
</g>
<g>
</g>
<g>
</g>
</svg>
